<?xml version="1.0" standalone="no"?>
<!DOCTYPE svg PUBLIC "-//W3C//DTD SVG 20010904//EN"
        "http://www.w3.org/TR/2001/REC-SVG-20010904/DTD/svg10.dtd">
<svg xmlns="http://www.w3.org/2000/svg"
     width="1462.000000pt" height="1000.000000pt" viewBox="0 0 1462.000000 1000.000000"
     preserveAspectRatio="xMidYMid meet">
    <metadata>
        Created by potrace 1.16, written by Peter Selinger 2001-2019
    </metadata>
    <g transform="translate(0.000000,1000.000000) scale(0.100000,-0.100000)"
       fill="#DDDDDD" stroke="none">
        <path d="M4660 8714 c-433 -15 -835 -68 -1180 -155 -208 -52 -336 -96 -488
-169 -206 -99 -340 -207 -397 -320 -65 -129 -204 -813 -262 -1290 -22 -185
-25 -726 -5 -865 75 -501 230 -779 560 -998 172 -114 306 -180 779 -380 372
-158 451 -207 497 -306 18 -40 21 -63 20 -191 0 -130 -12 -224 -108 -885 -107
-742 -176 -1230 -176 -1250 0 -6 55 -11 154 -12 332 -4 899 -72 1247 -148 177
-40 282 -73 347 -111 l46 -27 -22 -18 c-51 -41 -283 -99 -552 -138 -670 -97
-1356 -115 -2125 -55 -467 36 -850 106 -850 154 0 49 349 164 685 224 224 40
361 57 532 63 160 6 186 11 173 33 -21 35 -607 -27 -1000 -105 -239 -48 -426
-117 -461 -171 -48 -73 7 -130 168 -174 346 -95 1335 -172 1918 -149 600 23
1235 108 1473 197 134 49 182 129 121 201 -109 130 -693 233 -1534 271 -135 7
-247 13 -249 15 -2 3 45 270 103 595 59 325 137 765 173 978 90 536 93 648 22
791 -62 124 -159 184 -589 370 -685 296 -904 450 -1044 729 -167 334 -217 925
-140 1672 33 328 128 849 171 938 64 136 265 274 558 385 300 113 657 184
1145 229 211 19 772 16 955 -6 676 -79 1354 -287 1562 -479 52 -48 60 -74 37
-122 -65 -137 -412 -270 -876 -336 -506 -71 -1292 -90 -1707 -40 -457 55 -938
157 -1265 271 -73 25 -76 25 -76 0 0 -16 21 -26 128 -59 474 -150 1004 -254
1476 -291 166 -13 708 -13 946 0 762 42 1232 152 1412 331 44 44 60 68 73 112
23 81 9 124 -63 197 -213 212 -876 407 -1612 474 -169 16 -531 26 -700 20z"/>
        <path d="M8325 7196 c-66 -30 -105 -94 -105 -172 0 -165 203 -243 317 -121 76
81 66 205 -22 273 -30 23 -50 29 -99 31 -37 2 -73 -2 -91 -11z"/>
        <path d="M5264 6601 c-69 -42 -64 -17 -194 -943 -130 -927 -135 -985 -100
-1122 56 -222 225 -393 428 -435 90 -19 327 -14 414 8 135 35 250 103 360 212
l67 67 25 -43 c55 -93 170 -186 281 -226 49 -18 88 -23 219 -27 175 -5 240 4
352 47 235 91 444 338 508 601 9 36 70 448 136 916 129 922 127 901 72 945
-22 17 -37 20 -80 17 -43 -4 -59 -11 -87 -38 -19 -19 -39 -47 -44 -64 -6 -17
-62 -404 -126 -861 -64 -456 -121 -849 -126 -872 -34 -158 -168 -315 -317
-375 -50 -20 -75 -23 -207 -23 -150 0 -151 0 -217 33 -77 38 -129 91 -166 172
-49 107 -47 141 82 1053 64 451 116 837 116 859 0 75 -40 117 -109 118 -26 0
-56 -8 -75 -20 -68 -41 -64 -25 -195 -957 -67 -474 -128 -879 -135 -900 -61
-174 -210 -316 -367 -352 -69 -16 -248 -13 -309 5 -134 40 -222 145 -251 299
-12 68 -23 -22 122 1010 65 459 108 796 105 820 -10 82 -106 122 -182 76z"/>
        <path d="M8285 6600 c-68 -43 -61 -3 -235 -1245 -176 -1251 -171 -1199 -113
-1244 34 -27 95 -27 139 0 72 44 61 -10 235 1221 87 623 159 1150 159 1171 0
74 -40 117 -110 117 -28 0 -57 -8 -75 -20z"/>
        <path d="M9345 6605 c-227 -61 -425 -227 -537 -450 -62 -121 -74 -188 -200
-1082 -79 -562 -119 -878 -114 -897 12 -46 58 -86 101 -86 77 0 135 50 155
132 5 23 62 414 125 868 73 518 123 848 136 887 38 116 134 235 239 295 82 48
148 60 293 56 117 -3 138 -6 188 -30 109 -50 179 -149 202 -284 11 -61 3 -120
-112 -939 -106 -753 -121 -880 -111 -910 34 -102 173 -100 233 3 15 26 45 215
139 875 129 909 137 998 104 1127 -55 214 -213 384 -407 435 -71 19 -364 19
-434 0z"/>
        <path d="M11130 6596 c-240 -72 -433 -254 -539 -509 -40 -97 -49 -150 -137
-772 -66 -471 -75 -553 -71 -640 14 -288 181 -506 436 -571 50 -12 100 -15
230 -12 149 4 174 7 246 32 286 98 515 377 564 687 11 67 -2 111 -41 144 -27
23 -39 26 -74 22 -79 -8 -133 -69 -149 -167 -27 -167 -165 -339 -323 -402 -50
-20 -74 -23 -207 -23 -150 0 -151 0 -217 33 -76 37 -125 89 -165 172 -40 83
-41 171 -7 415 l28 203 425 5 c464 5 519 11 626 64 59 28 114 82 145 143 47
91 104 348 117 525 15 213 -71 434 -215 551 -123 101 -206 124 -433 123 -140
0 -175 -3 -239 -23z m377 -282 c108 -37 187 -120 223 -233 24 -75 25 -146 5
-284 -26 -180 -44 -246 -70 -263 -35 -23 -217 -33 -587 -34 -312 0 -328 1
-328 18 0 10 13 113 30 228 27 195 32 215 70 290 67 136 167 229 295 273 79
27 289 30 362 5z"/>
        <path d="M5132 3627 c-9 -11 -12 -139 -10 -497 3 -447 4 -484 21 -494 12 -8
22 -8 35 0 16 10 17 44 22 405 l5 394 60 -98 c33 -54 101 -164 150 -245 74
-120 95 -148 115 -150 23 -3 38 18 175 244 l150 247 5 -391 c3 -272 8 -394 16
-402 7 -7 22 -10 35 -8 l24 3 3 491 c2 524 2 525 -45 510 -10 -4 -94 -132
-187 -286 -93 -154 -172 -280 -175 -280 -3 0 -83 127 -177 283 -172 285 -192
310 -222 274z"/>
        <path d="M6762 3628 c-48 -16 -119 -83 -150 -142 l-27 -51 0 -394 c0 -364 1
-395 18 -405 12 -8 22 -8 35 0 15 10 17 32 20 183 l2 171 208 -2 207 -3 3
-164 c3 -168 8 -191 43 -191 38 0 40 28 37 418 -3 359 -4 379 -24 423 -28 60
-78 115 -128 141 -48 25 -190 34 -244 16z m213 -101 c44 -25 80 -72 95 -126 5
-20 10 -100 10 -178 l0 -143 -210 0 -210 0 0 148 c0 81 5 164 11 185 12 46 63
105 104 123 50 22 154 17 200 -9z"/>
        <path d="M7801 3621 c-15 -27 -15 -944 -1 -972 12 -21 40 -25 58 -7 9 9 12 74
12 230 l0 218 108 0 107 -1 106 -221 c58 -122 113 -226 122 -232 21 -14 51 3
55 30 1 11 -40 108 -93 217 -52 109 -95 201 -95 206 0 5 14 14 31 21 81 34
159 158 159 254 0 102 -58 203 -144 249 -37 20 -58 22 -228 25 -178 3 -187 3
-197 -17z m385 -90 c130 -59 139 -237 16 -322 -33 -22 -46 -24 -184 -27 l-148
-3 0 185 0 186 138 0 c112 0 145 -4 178 -19z"/>
        <path d="M9020 3621 c-6 -13 -10 -184 -10 -486 0 -302 4 -473 10 -486 12 -21
40 -25 58 -7 9 9 12 76 12 238 l0 226 55 54 c40 39 58 51 66 43 6 -6 77 -134
158 -284 81 -150 155 -278 164 -283 20 -13 50 2 55 28 3 14 -118 249 -283 550
l-35 64 160 147 c160 148 178 173 148 203 -7 7 -19 12 -28 12 -8 0 -111 -89
-229 -197 -117 -109 -217 -199 -222 -201 -5 -2 -9 81 -9 185 0 134 -4 193 -12
201 -18 18 -46 14 -58 -7z"/>
        <path d="M10240 3621 c-15 -30 -14 -963 2 -979 17 -17 449 -17 466 0 17 17 15
44 -4 62 -13 13 -46 16 -205 16 l-189 0 0 185 0 184 146 3 c124 3 148 6 157
20 8 12 8 24 -1 42 l-12 26 -145 0 -145 0 0 185 0 185 195 0 195 0 11 24 c8
17 8 29 0 45 -11 20 -17 21 -236 21 -212 0 -225 -1 -235 -19z"/>
        <path d="M11371 3631 c-7 -5 -13 -21 -13 -36 0 -15 6 -31 13 -36 8 -5 62 -9
122 -9 l107 0 0 -441 c0 -284 4 -447 10 -460 12 -21 40 -25 58 -7 9 9 12 125
12 460 l0 448 113 0 c119 0 137 6 137 45 0 43 -11 45 -284 45 -144 0 -267 -4
-275 -9z"/>
    </g>
</svg>
